<mxfile host="app.diagrams.net" modified="2020-12-14T19:43:02.945Z" agent="5.0 (Windows NT 10.0; Win64; x64) AppleWebKit/537.36 (KHTML, like Gecko) Chrome/87.0.4280.88 Safari/537.36" etag="r5rVvQzcsyw4B_QeOqmZ" version="13.8.1" type="github">
  <diagram id="FDvBxADv8N06hc_olc51" name="Page-1">
    <mxGraphModel dx="1038" dy="548" grid="1" gridSize="10" guides="1" tooltips="1" connect="1" arrows="1" fold="1" page="1" pageScale="1" pageWidth="850" pageHeight="1100" math="0" shadow="0">
      <root>
        <mxCell id="0" />
        <mxCell id="1" parent="0" />
        <mxCell id="1JErVeD1ttZ6OdPishEA-1" value="CLASSROOM" style="rounded=0;whiteSpace=wrap;html=1;" parent="1" vertex="1">
          <mxGeometry x="150" y="140" width="120" height="60" as="geometry" />
        </mxCell>
        <mxCell id="1JErVeD1ttZ6OdPishEA-2" value="COURSE" style="rounded=0;whiteSpace=wrap;html=1;" parent="1" vertex="1">
          <mxGeometry x="330" y="410" width="120" height="60" as="geometry" />
        </mxCell>
        <mxCell id="1JErVeD1ttZ6OdPishEA-3" value="&lt;u&gt;Cassroom_ID&lt;/u&gt;" style="ellipse;whiteSpace=wrap;html=1;" parent="1" vertex="1">
          <mxGeometry x="20" y="170" width="90" height="40" as="geometry" />
        </mxCell>
        <mxCell id="1JErVeD1ttZ6OdPishEA-4" value="" style="endArrow=none;html=1;exitX=0.72;exitY=0.003;exitDx=0;exitDy=0;exitPerimeter=0;" parent="1" source="1JErVeD1ttZ6OdPishEA-3" edge="1">
          <mxGeometry width="50" height="50" relative="1" as="geometry">
            <mxPoint x="100" y="220" as="sourcePoint" />
            <mxPoint x="150" y="170" as="targetPoint" />
          </mxGeometry>
        </mxCell>
        <mxCell id="M33G9GwXgaiTnWeXT5Mb-1" value="Campus Building" style="ellipse;whiteSpace=wrap;html=1;" vertex="1" parent="1">
          <mxGeometry x="80" y="230" width="105" height="40" as="geometry" />
        </mxCell>
        <mxCell id="M33G9GwXgaiTnWeXT5Mb-2" value="" style="endArrow=none;html=1;exitX=0.5;exitY=0;exitDx=0;exitDy=0;entryX=0.157;entryY=1.023;entryDx=0;entryDy=0;entryPerimeter=0;" edge="1" parent="1" source="M33G9GwXgaiTnWeXT5Mb-1" target="1JErVeD1ttZ6OdPishEA-1">
          <mxGeometry width="50" height="50" relative="1" as="geometry">
            <mxPoint x="94.79999999999995" y="240.17999999999995" as="sourcePoint" />
            <mxPoint x="160" y="180" as="targetPoint" />
          </mxGeometry>
        </mxCell>
        <mxCell id="M33G9GwXgaiTnWeXT5Mb-3" value="Room_Number" style="ellipse;whiteSpace=wrap;html=1;" vertex="1" parent="1">
          <mxGeometry x="215" y="230" width="120" height="40" as="geometry" />
        </mxCell>
        <mxCell id="M33G9GwXgaiTnWeXT5Mb-4" value="Room_Capacity" style="ellipse;whiteSpace=wrap;html=1;" vertex="1" parent="1">
          <mxGeometry x="300" y="150" width="120" height="40" as="geometry" />
        </mxCell>
        <mxCell id="M33G9GwXgaiTnWeXT5Mb-6" value="Classroom_Style" style="ellipse;whiteSpace=wrap;html=1;align=center;fontStyle=4;sketch=1;shadow=1;" vertex="1" parent="1">
          <mxGeometry x="130" y="60" width="100" height="40" as="geometry" />
        </mxCell>
        <mxCell id="M33G9GwXgaiTnWeXT5Mb-7" value="" style="endArrow=none;html=1;exitX=0.25;exitY=0;exitDx=0;exitDy=0;" edge="1" parent="1" source="1JErVeD1ttZ6OdPishEA-1" target="M33G9GwXgaiTnWeXT5Mb-6">
          <mxGeometry width="50" height="50" relative="1" as="geometry">
            <mxPoint x="70" y="180" as="sourcePoint" />
            <mxPoint x="120" y="130" as="targetPoint" />
          </mxGeometry>
        </mxCell>
        <mxCell id="M33G9GwXgaiTnWeXT5Mb-8" value="" style="endArrow=none;html=1;entryX=0;entryY=0.5;entryDx=0;entryDy=0;exitX=1;exitY=0.5;exitDx=0;exitDy=0;" edge="1" parent="1" source="1JErVeD1ttZ6OdPishEA-1" target="M33G9GwXgaiTnWeXT5Mb-4">
          <mxGeometry width="50" height="50" relative="1" as="geometry">
            <mxPoint x="270" y="200" as="sourcePoint" />
            <mxPoint x="320" y="150" as="targetPoint" />
          </mxGeometry>
        </mxCell>
        <mxCell id="M33G9GwXgaiTnWeXT5Mb-9" value="" style="endArrow=none;html=1;entryX=0;entryY=0;entryDx=0;entryDy=0;exitX=0.5;exitY=1;exitDx=0;exitDy=0;" edge="1" parent="1" source="1JErVeD1ttZ6OdPishEA-1" target="M33G9GwXgaiTnWeXT5Mb-3">
          <mxGeometry width="50" height="50" relative="1" as="geometry">
            <mxPoint x="-40" y="190" as="sourcePoint" />
            <mxPoint x="10" y="140" as="targetPoint" />
          </mxGeometry>
        </mxCell>
      </root>
    </mxGraphModel>
  </diagram>
</mxfile>
